<mxfile host="app.diagrams.net" agent="Mozilla/5.0 (Windows NT 10.0; Win64; x64) AppleWebKit/537.36 (KHTML, like Gecko) Chrome/133.0.0.0 Safari/537.36" version="26.0.16">
  <diagram name="Page-1" id="uz-ISEkMkpy3JlYTRd4P">
    <mxGraphModel dx="4654" dy="1098" grid="1" gridSize="10" guides="1" tooltips="1" connect="1" arrows="1" fold="1" page="1" pageScale="1" pageWidth="850" pageHeight="1100" math="0" shadow="0">
      <root>
        <mxCell id="0" />
        <mxCell id="1" parent="0" />
        <mxCell id="TmYf55Ae-JYS25pkBuSo-2" style="edgeStyle=orthogonalEdgeStyle;rounded=0;orthogonalLoop=1;jettySize=auto;html=1;entryX=0.5;entryY=0;entryDx=0;entryDy=0;verticalAlign=top;" parent="1" source="TmYf55Ae-JYS25pkBuSo-3" target="TmYf55Ae-JYS25pkBuSo-5" edge="1">
          <mxGeometry relative="1" as="geometry">
            <Array as="points">
              <mxPoint x="-385" y="130" />
            </Array>
          </mxGeometry>
        </mxCell>
        <mxCell id="TmYf55Ae-JYS25pkBuSo-3" value="state_idle" style="ellipse;whiteSpace=wrap;html=1;" parent="1" vertex="1">
          <mxGeometry x="-715" y="68" width="170" height="132" as="geometry" />
        </mxCell>
        <mxCell id="TmYf55Ae-JYS25pkBuSo-27" style="edgeStyle=orthogonalEdgeStyle;rounded=0;orthogonalLoop=1;jettySize=auto;html=1;exitX=0.5;exitY=1;exitDx=0;exitDy=0;entryX=0.5;entryY=0;entryDx=0;entryDy=0;" parent="1" source="TmYf55Ae-JYS25pkBuSo-5" target="TmYf55Ae-JYS25pkBuSo-15" edge="1">
          <mxGeometry relative="1" as="geometry" />
        </mxCell>
        <mxCell id="TmYf55Ae-JYS25pkBuSo-5" value="&lt;div&gt;state_start&lt;/div&gt;&lt;div&gt;&lt;br&gt;&lt;/div&gt;&lt;div&gt;sbc_clear = 1;&lt;/div&gt;&lt;div&gt;enable_timer = 1;&lt;/div&gt;" style="ellipse;whiteSpace=wrap;html=1;verticalAlign=middle;" parent="1" vertex="1">
          <mxGeometry x="-500" y="200" width="230" height="170" as="geometry" />
        </mxCell>
        <mxCell id="TmYf55Ae-JYS25pkBuSo-6" value="new_packet_detected" style="text;html=1;align=center;verticalAlign=middle;resizable=0;points=[];autosize=1;strokeColor=none;fillColor=none;" parent="1" vertex="1">
          <mxGeometry x="-510" y="100" width="140" height="30" as="geometry" />
        </mxCell>
        <mxCell id="TmYf55Ae-JYS25pkBuSo-7" style="edgeStyle=orthogonalEdgeStyle;rounded=0;orthogonalLoop=1;jettySize=auto;html=1;entryX=0.5;entryY=0;entryDx=0;entryDy=0;" parent="1" source="TmYf55Ae-JYS25pkBuSo-8" target="TmYf55Ae-JYS25pkBuSo-3" edge="1">
          <mxGeometry relative="1" as="geometry" />
        </mxCell>
        <mxCell id="TmYf55Ae-JYS25pkBuSo-8" value="~n_rst" style="text;html=1;align=center;verticalAlign=middle;resizable=0;points=[];autosize=1;strokeColor=none;fillColor=none;" parent="1" vertex="1">
          <mxGeometry x="-780" y="30" width="60" height="30" as="geometry" />
        </mxCell>
        <mxCell id="TmYf55Ae-JYS25pkBuSo-9" style="edgeStyle=orthogonalEdgeStyle;rounded=0;orthogonalLoop=1;jettySize=auto;html=1;entryX=1;entryY=0.5;entryDx=0;entryDy=0;" parent="1" source="TmYf55Ae-JYS25pkBuSo-10" target="TmYf55Ae-JYS25pkBuSo-22" edge="1">
          <mxGeometry relative="1" as="geometry" />
        </mxCell>
        <mxCell id="TmYf55Ae-JYS25pkBuSo-10" value="&lt;div&gt;state_middle&lt;/div&gt;&lt;div&gt;data_out = data_dyn&lt;/div&gt;&lt;div&gt;&lt;br&gt;&lt;/div&gt;&lt;div&gt;load= 1&lt;/div&gt;" style="ellipse;whiteSpace=wrap;html=1;verticalAlign=middle;" parent="1" vertex="1">
          <mxGeometry x="-765" y="591.75" width="190" height="150" as="geometry" />
        </mxCell>
        <mxCell id="TmYf55Ae-JYS25pkBuSo-11" value="end_packet = 1" style="text;html=1;align=center;verticalAlign=middle;resizable=0;points=[];autosize=1;strokeColor=none;fillColor=none;" parent="1" vertex="1">
          <mxGeometry x="-1060" y="530" width="110" height="30" as="geometry" />
        </mxCell>
        <mxCell id="TmYf55Ae-JYS25pkBuSo-12" style="edgeStyle=orthogonalEdgeStyle;rounded=0;orthogonalLoop=1;jettySize=auto;html=1;entryX=0.5;entryY=1;entryDx=0;entryDy=0;" parent="1" source="TmYf55Ae-JYS25pkBuSo-13" target="TmYf55Ae-JYS25pkBuSo-17" edge="1">
          <mxGeometry relative="1" as="geometry" />
        </mxCell>
        <mxCell id="TmYf55Ae-JYS25pkBuSo-13" value="&lt;div&gt;state_done&lt;/div&gt;&lt;div&gt;const_select = 1;&lt;/div&gt;&lt;div&gt;data_out = data_const;&lt;/div&gt;&lt;div&gt;&lt;br&gt;&lt;/div&gt;&lt;div&gt;load = 1&lt;/div&gt;" style="ellipse;whiteSpace=wrap;html=1;" parent="1" vertex="1">
          <mxGeometry x="-1030" y="360" width="210" height="140" as="geometry" />
        </mxCell>
        <mxCell id="TmYf55Ae-JYS25pkBuSo-14" style="edgeStyle=orthogonalEdgeStyle;rounded=0;orthogonalLoop=1;jettySize=auto;html=1;exitX=0;exitY=0.5;exitDx=0;exitDy=0;entryX=1;entryY=0.5;entryDx=0;entryDy=0;curved=1;" parent="1" source="TmYf55Ae-JYS25pkBuSo-15" target="TmYf55Ae-JYS25pkBuSo-10" edge="1">
          <mxGeometry relative="1" as="geometry" />
        </mxCell>
        <mxCell id="TmYf55Ae-JYS25pkBuSo-15" value="&lt;div&gt;state_waiting&lt;/div&gt;&lt;div&gt;&lt;br&gt;&lt;/div&gt;&lt;div&gt;load_buffer = 1;&lt;/div&gt;&lt;div&gt;&lt;br&gt;&lt;/div&gt;&lt;div&gt;&lt;br&gt;&lt;/div&gt;&lt;div&gt;&lt;br&gt;&lt;/div&gt;" style="ellipse;whiteSpace=wrap;html=1;verticalAlign=middle;" parent="1" vertex="1">
          <mxGeometry x="-490.5" y="540" width="211" height="160" as="geometry" />
        </mxCell>
        <mxCell id="TmYf55Ae-JYS25pkBuSo-16" style="edgeStyle=orthogonalEdgeStyle;rounded=0;orthogonalLoop=1;jettySize=auto;html=1;entryX=0;entryY=0.5;entryDx=0;entryDy=0;exitX=0.5;exitY=0;exitDx=0;exitDy=0;" parent="1" source="TmYf55Ae-JYS25pkBuSo-17" target="TmYf55Ae-JYS25pkBuSo-3" edge="1">
          <mxGeometry relative="1" as="geometry">
            <Array as="points">
              <mxPoint x="-905" y="130" />
            </Array>
          </mxGeometry>
        </mxCell>
        <mxCell id="TmYf55Ae-JYS25pkBuSo-17" value="&lt;div&gt;state_waitdone&lt;/div&gt;&lt;div&gt;&lt;br&gt;&lt;/div&gt;" style="ellipse;whiteSpace=wrap;html=1;" parent="1" vertex="1">
          <mxGeometry x="-1010" y="158" width="210" height="140" as="geometry" />
        </mxCell>
        <mxCell id="TmYf55Ae-JYS25pkBuSo-18" value="done = 1" style="text;html=1;align=center;verticalAlign=middle;resizable=0;points=[];autosize=1;strokeColor=none;fillColor=none;" parent="1" vertex="1">
          <mxGeometry x="-850" y="100" width="70" height="30" as="geometry" />
        </mxCell>
        <mxCell id="TmYf55Ae-JYS25pkBuSo-20" style="edgeStyle=orthogonalEdgeStyle;rounded=0;orthogonalLoop=1;jettySize=auto;html=1;entryX=0.5;entryY=1;entryDx=0;entryDy=0;" parent="1" source="TmYf55Ae-JYS25pkBuSo-22" target="TmYf55Ae-JYS25pkBuSo-13" edge="1">
          <mxGeometry relative="1" as="geometry">
            <Array as="points">
              <mxPoint x="-925" y="550" />
              <mxPoint x="-925" y="550" />
            </Array>
          </mxGeometry>
        </mxCell>
        <mxCell id="TmYf55Ae-JYS25pkBuSo-21" style="edgeStyle=orthogonalEdgeStyle;rounded=0;orthogonalLoop=1;jettySize=auto;html=1;entryX=0;entryY=1;entryDx=0;entryDy=0;curved=1;" parent="1" source="TmYf55Ae-JYS25pkBuSo-22" target="TmYf55Ae-JYS25pkBuSo-10" edge="1">
          <mxGeometry relative="1" as="geometry">
            <Array as="points">
              <mxPoint x="-950" y="810" />
              <mxPoint x="-821" y="810" />
              <mxPoint x="-821" y="718" />
            </Array>
          </mxGeometry>
        </mxCell>
        <mxCell id="TmYf55Ae-JYS25pkBuSo-22" value="&lt;div&gt;state_waiting_data&lt;/div&gt;&lt;div&gt;&lt;br&gt;&lt;/div&gt;" style="ellipse;whiteSpace=wrap;html=1;" parent="1" vertex="1">
          <mxGeometry x="-1060" y="588.25" width="220" height="153.5" as="geometry" />
        </mxCell>
        <mxCell id="TmYf55Ae-JYS25pkBuSo-23" value="end_packet = 0" style="text;html=1;align=center;verticalAlign=middle;resizable=0;points=[];autosize=1;strokeColor=none;fillColor=none;" parent="1" vertex="1">
          <mxGeometry x="-930" y="820" width="110" height="30" as="geometry" />
        </mxCell>
        <mxCell id="TmYf55Ae-JYS25pkBuSo-24" value="done = 1" style="text;html=1;align=center;verticalAlign=middle;resizable=0;points=[];autosize=1;strokeColor=none;fillColor=none;" parent="1" vertex="1">
          <mxGeometry x="-565" y="628" width="70" height="30" as="geometry" />
        </mxCell>
        <mxCell id="TmYf55Ae-JYS25pkBuSo-25" value="done = 1" style="text;html=1;align=center;verticalAlign=middle;resizable=0;points=[];autosize=1;strokeColor=none;fillColor=none;" parent="1" vertex="1">
          <mxGeometry x="-920" y="530" width="70" height="30" as="geometry" />
        </mxCell>
        <mxCell id="TmYf55Ae-JYS25pkBuSo-26" value="done = 1" style="text;html=1;align=center;verticalAlign=middle;resizable=0;points=[];autosize=1;strokeColor=none;fillColor=none;" parent="1" vertex="1">
          <mxGeometry x="-920" y="772" width="70" height="30" as="geometry" />
        </mxCell>
        <mxCell id="TmYf55Ae-JYS25pkBuSo-28" value="packet_done" style="text;html=1;align=center;verticalAlign=middle;resizable=0;points=[];autosize=1;strokeColor=none;fillColor=none;" parent="1" vertex="1">
          <mxGeometry x="-370" y="460" width="90" height="30" as="geometry" />
        </mxCell>
      </root>
    </mxGraphModel>
  </diagram>
</mxfile>
